# xmcd
#
# Track frame offsets:
#	150
#	16915
#	38760
#	64195
#	86130
#	107247
#	125825
#	144790
#	168855
#	191442
#
# Disc length: 2730 seconds
#
# Revision: 1
# Processed by: cddbd v1.5PL3 Copyright (c) Steve Scherf et al.
# Submitted via: CDex 1.50Beta5
#
DISCID=810aa80a
DTITLE=Promise - Promise
DYEAR=1900
DGENRE=Gospel
TTITLE0=It'S A Highway To Heaven
TTITLE1=Look How Far . . .
TTITLE2=Oh, Magnify The Lord
TTITLE3=Praise The Name Of The Lord
TTITLE4=Saved
TTITLE5=Spirit
TTITLE6=These Are They
TTITLE7=Twelve Gates To The City
TTITLE8=Washed In His Love
TTITLE9=Wisdom
EXTD=
EXTT0=
EXTT1=
EXTT2=
EXTT3=
EXTT4=
EXTT5=
EXTT6=
EXTT7=
EXTT8=
EXTT9=
PLAYORDER=
